<svg width="138" height="31" viewBox="0 0 138 31" fill="none" xmlns="http://www.w3.org/2000/svg">
<path d="M132.056 19.476H137.636V23.652H127.016V0.360001H137.636V4.464H132.056V9.936H137.276V13.896H132.056V19.476Z" fill="#0B0806"/>
<path d="M123.637 23.652H118.597V4.32C118.597 4.128 118.525 3.96 118.381 3.816C118.261 3.672 118.105 3.6 117.913 3.6H115.969C115.777 3.6 115.609 3.672 115.465 3.816C115.345 3.96 115.285 4.128 115.285 4.32V23.652H110.245V4.752C110.245 1.584 111.733 0 114.709 0H119.173C122.149 0 123.637 1.584 123.637 4.752V23.652Z" fill="#0B0806"/>
<path d="M106.532 0.360001V23.652H101.492V0.360001H106.532Z" fill="#0B0806"/>
<path d="M81.3243 23.652H76.2843V4.752C76.2843 1.584 77.7723 0 80.7483 0H83.4123C85.1643 0 86.4123 0.576 87.1563 1.728C87.8523 0.576 89.1003 0 90.9003 0H93.5643C96.5403 0 98.0283 1.584 98.0283 4.752V23.652H92.9883V4.32C92.9883 4.128 92.9163 3.96 92.7723 3.816C92.6523 3.672 92.4963 3.6 92.3043 3.6H90.3603C90.1683 3.6 90.0003 3.672 89.8563 3.816C89.7363 3.96 89.6763 4.128 89.6763 4.32V23.652H84.6363V4.32C84.6363 4.128 84.5643 3.96 84.4203 3.816C84.3003 3.672 84.1443 3.6 83.9523 3.6H82.0083C81.8163 3.6 81.6483 3.672 81.5043 3.816C81.3843 3.96 81.3243 4.128 81.3243 4.32V23.652Z" fill="#0B0806"/>
<path d="M67.8251 19.476H73.4051V23.652H62.7851V0.360001H73.4051V4.464H67.8251V9.936H73.0451V13.896H67.8251V19.476Z" fill="#0B0806"/>
<path d="M51.1611 14.112V23.652H46.1211V0.360001H55.0851C58.0611 0.360001 59.5491 1.944 59.5491 5.112V7.812C59.5491 9.732 58.8651 10.956 57.4971 11.484C58.6971 11.916 59.2971 12.9 59.2971 14.436V23.652H54.2571V14.832C54.2571 14.352 54.0291 14.112 53.5731 14.112H51.1611ZM51.1611 3.78V10.584H53.8251C54.0171 10.584 54.1731 10.512 54.2931 10.368C54.4371 10.224 54.5091 10.056 54.5091 9.864V4.5C54.5091 4.308 54.4371 4.14 54.2931 3.996C54.1731 3.852 54.0171 3.78 53.8251 3.78H51.1611Z" fill="#0B0806"/>
<path d="M37.6259 19.476H43.2059V23.652H32.5859V0.360001H43.2059V4.464H37.6259V9.936H42.8459V13.896H37.6259V19.476Z" fill="#0B0806"/>
<path d="M19.9423 14.508V23.652H14.9023V0.360001H19.9423V10.116H23.9383V0.360001H28.9783V23.652H23.9383V14.508H19.9423Z" fill="#0B0806"/>
<path d="M0 4.644V0.360001H12.6V4.644H8.82V23.652H3.78V4.644H0Z" fill="#0B0806"/>
<path d="M137.532 26.652V30.652H76.532V26.652H137.532Z" fill="#0B0806"/>
</svg>
